<svg xmlns="http://www.w3.org/2000/svg" width="1600" height="900" viewBox="0 0 1600 900">
<defs>
  <radialGradient id="bg" cx="68%" cy="35%" r="65%">
    <stop offset="0" stop-color="#754cff"/>
    <stop offset=".42" stop-color="#2d146e"/>
    <stop offset="1" stop-color="#08051e"/>
  </radialGradient>
  <linearGradient id="rainbow" x1="0" y1="0" x2="1" y2="1">
    <stop offset="0" stop-color="#8cf7ff"/>
    <stop offset=".25" stop-color="#bda3ff"/>
    <stop offset=".55" stop-color="#ff9cde"/>
    <stop offset=".8" stop-color="#ffe89b"/>
    <stop offset="1" stop-color="#9cf3ff"/>
  </linearGradient>
  <filter id="blur"><feGaussianBlur stdDeviation="12"/></filter>
</defs>
<rect width="1600" height="900" fill="url(#bg)"/>
<g opacity=".95">
  <ellipse cx="740" cy="500" rx="760" ry="110" fill="none" stroke="url(#rainbow)" stroke-width="42" transform="rotate(-18 740 500)" opacity=".55" filter="url(#blur)"/>
  <ellipse cx="740" cy="500" rx="760" ry="110" fill="none" stroke="url(#rainbow)" stroke-width="18" transform="rotate(-18 740 500)" opacity=".9"/>
</g>
<circle cx="1230" cy="190" r="85" fill="url(#rainbow)" opacity=".85"/>
<ellipse cx="1230" cy="190" rx="130" ry="25" fill="none" stroke="#d9c6ff" stroke-width="10" opacity=".55" transform="rotate(-18 1230 190)"/>
<g fill="#fff">
  <circle cx="140" cy="100" r="3"/><circle cx="270" cy="210" r="5"/><circle cx="430" cy="120" r="2"/><circle cx="610" cy="280" r="4"/>
  <circle cx="910" cy="140" r="3"/><circle cx="1070" cy="360" r="4"/><circle cx="1340" cy="460" r="3"/><circle cx="1480" cy="280" r="5"/>
  <circle cx="380" cy="610" r="3"/><circle cx="720" cy="720" r="4"/><circle cx="1180" cy="690" r="2"/>
</g>
</svg>